<svg width="111" height="111" viewBox="0 0 111 111" fill="none" xmlns="http://www.w3.org/2000/svg">
<path fill-rule="evenodd" clip-rule="evenodd" d="M43.1632 1.41837C34.9192 3.25337 30.2332 5.37537 22.8752 10.6084C-4.91177 30.3684 -7.86477 70.4964 16.6582 95.0684C30.1412 108.577 52.3562 114.086 70.8002 108.494C75.7752 106.985 85.0092 102.354 80.6632 103.547C70.2942 106.393 63.2122 106.613 53.7562 104.384C35.3582 100.048 20.5392 85.2294 16.2032 66.8314C9.87523 39.9884 26.7742 12.8244 53.7562 6.46437C63.2112 4.23537 70.2592 4.45437 80.6632 7.29937C82.0382 7.67537 81.1142 6.88137 78.6112 5.53437C73.3132 2.68637 60.8472 -0.11063 53.9552 0.00337012C51.3192 0.0473701 46.4632 0.684369 43.1632 1.41837ZM59.6632 11.9354C55.1872 12.7074 46.8782 15.6014 45.3772 16.9114C44.9442 17.2884 47.3772 16.9164 50.7832 16.0844C71.7972 10.9504 95.0482 26.6914 98.7092 48.5294C99.7322 54.6314 99.4132 59.2314 97.4362 66.8884C92.2112 87.1244 68.6562 100.237 47.9982 94.4094C46.9892 94.1244 47.9632 94.7754 50.1632 95.8554C69.7782 105.486 97.0652 95.2704 106.677 74.6984C119.216 47.8614 102.995 16.6404 74.0502 11.9004C67.4712 10.8224 66.0972 10.8264 59.6632 11.9354ZM34.0632 47.3244C26.6012 54.7864 31.5022 66.9244 41.9782 66.9244C45.9742 66.9244 50.6632 63.6464 50.6632 60.8514C50.6632 58.1434 47.8492 58.4314 45.0752 61.4244C42.2752 64.4464 40.3172 64.5784 37.6632 61.9244C36.2562 60.5174 35.6632 58.5914 35.6632 55.4244C35.6632 47.7944 41.4312 44.2704 45.4842 49.4244C47.8312 52.4074 50.6632 52.7204 50.6632 49.9974C50.6632 47.0064 45.9762 43.9244 41.4282 43.9244C38.2522 43.9244 36.7862 44.6014 34.0632 47.3244ZM55.6632 55.4244V66.9244H58.1632C60.6322 66.9244 60.6642 66.8174 60.7532 58.1744C60.8312 50.6574 60.9812 49.9174 61.8222 52.9244C65.7682 67.0284 65.7212 66.9244 68.1632 66.9244C70.6052 66.9244 70.5582 67.0284 74.5042 52.9244C75.3452 49.9174 75.4952 50.6574 75.5732 58.1744C75.6622 66.8174 75.6942 66.9244 78.1632 66.9244H80.6632V55.4244V43.9244H76.7742C73.1392 43.9244 72.8442 44.1474 72.2442 47.3454C71.8912 49.2274 70.8962 53.1424 70.0342 56.0464C68.2102 62.1884 67.7152 61.6904 65.1892 51.1744L63.4482 43.9244H59.5552H55.6632V55.4244Z" fill="#673AB7"/>
</svg>
